<mxfile host="app.diagrams.net" modified="2023-12-29T09:15:43.147Z" agent="Mozilla/5.0 (Macintosh; Intel Mac OS X 10_15_7) AppleWebKit/537.36 (KHTML, like Gecko) Chrome/120.0.0.0 Safari/537.36" version="21.7.1" etag="gOjy5ADU0j6S9UYpdC8p" type="github">
  <diagram name="第 1 页" id="VD_OD2KZYYni-hdoI3xD">
    <mxGraphModel>
      <root>
        <mxCell id="0" />
        <mxCell id="1" parent="0" />
      </root>
    </mxGraphModel>
  </diagram>
</mxfile>
